<mxfile host="app.diagrams.net" agent="Mozilla/5.0 (Windows NT 10.0; Win64; x64; rv:132.0) Gecko/20100101 Firefox/132.0" version="24.8.6">
  <diagram name="Страница — 1" id="QWWhaRhY9D7dxEq5PxqZ">
    <mxGraphModel dx="989" dy="520" grid="1" gridSize="10" guides="1" tooltips="1" connect="1" arrows="1" fold="1" page="1" pageScale="1" pageWidth="827" pageHeight="1169" math="0" shadow="0">
      <root>
        <mxCell id="0" />
        <mxCell id="1" parent="0" />
        <mxCell id="2mHUGmnxwJs71J8LvA5L-19" value="" style="rounded=0;orthogonalLoop=1;jettySize=auto;html=1;fillColor=#dae8fc;strokeColor=#6c8ebf;elbow=vertical;shape=flexArrow;opacity=40;shadow=1;flowAnimation=0;sketch=1;curveFitting=1;jiggle=2;dashed=1;dashPattern=1 2;endWidth=31.724137931034484;endSize=20.90344827586207;width=60;" edge="1" parent="1">
          <mxGeometry relative="1" as="geometry">
            <mxPoint x="670" y="200" as="sourcePoint" />
            <mxPoint x="209" y="200" as="targetPoint" />
            <Array as="points" />
          </mxGeometry>
        </mxCell>
        <mxCell id="2mHUGmnxwJs71J8LvA5L-20" value="vless 443/tcp interconn" style="edgeLabel;html=1;align=center;verticalAlign=middle;resizable=0;points=[];" vertex="1" connectable="0" parent="2mHUGmnxwJs71J8LvA5L-19">
          <mxGeometry x="0.1185" y="4" relative="1" as="geometry">
            <mxPoint x="50" y="26" as="offset" />
          </mxGeometry>
        </mxCell>
        <mxCell id="2mHUGmnxwJs71J8LvA5L-12" value="" style="image;html=1;image=img/lib/clip_art/computers/Server_Tower_128x128.png" vertex="1" parent="1">
          <mxGeometry x="680" y="162.5" width="100" height="85" as="geometry" />
        </mxCell>
        <mxCell id="2mHUGmnxwJs71J8LvA5L-13" value="" style="image;html=1;image=img/lib/clip_art/computers/Server_128x128.png" vertex="1" parent="1">
          <mxGeometry x="40" y="160" width="130" height="90" as="geometry" />
        </mxCell>
        <mxCell id="2mHUGmnxwJs71J8LvA5L-23" value="" style="rounded=1;whiteSpace=wrap;html=1;" vertex="1" parent="1">
          <mxGeometry x="360" y="210" width="120" height="60" as="geometry" />
        </mxCell>
        <mxCell id="2mHUGmnxwJs71J8LvA5L-24" value="NGINX&amp;nbsp; 0.0.0.0:443" style="rounded=1;whiteSpace=wrap;html=1;" vertex="1" parent="1">
          <mxGeometry x="45" y="300" width="120" height="60" as="geometry" />
        </mxCell>
      </root>
    </mxGraphModel>
  </diagram>
</mxfile>
